<svg xmlns:xlink="http://www.w3.org/1999/xlink" viewBox="0 0 25 24" fill="none" xmlns="http://www.w3.org/2000/svg" width="25"  height="24" ><path d="M22.2052 10.7942C21.9891 8.97963 21.2788 7.25924 20.1517 5.82079C19.0246 4.38234 17.524 3.2811 15.8138 2.63726C14.1035 1.99341 12.2493 1.83169 10.4534 2.16974C8.6575 2.5078 6.98897 3.33263 5.62987 4.55424C4.71394 5.33821 3.96724 6.30048 3.4353 7.3824C2.76361 8.6693 2.38046 10.0871 2.31252 11.5372C2.24458 12.9872 2.49349 14.4347 3.0419 15.7787C3.59031 17.1228 4.42507 18.3312 5.48804 19.3198C6.55101 20.3084 7.81667 21.0535 9.19691 21.5031C10.5771 21.9528 12.0388 22.0962 13.4801 21.9235C14.9215 21.7507 16.3078 21.2659 17.5427 20.5029C18.7776 19.7398 19.8314 18.7167 20.6306 17.5049C21.4298 16.2931 21.9554 14.9217 22.1707 13.4861C22.3355 12.5973 22.3472 11.6869 22.2052 10.7942ZM20.0135 15.9782C19.5953 16.7261 19.0632 17.4043 18.4363 17.9885C17.9679 16.6012 17.0491 15.4104 15.8261 14.6055C14.603 13.8006 13.1459 13.4279 11.6865 13.5466C9.6705 13.7021 6.5409 15.3514 6.2289 17.6342C5.41724 16.7983 4.79514 15.7974 4.40491 14.6995C3.80281 12.9789 3.72135 11.119 4.17068 9.35232C4.61565 8.16038 5.29909 7.07175 6.17921 6.153C7.05934 5.23424 8.11766 4.50469 9.2894 4.00896C9.91147 3.77766 10.5595 3.62324 11.219 3.54912C12.6049 3.37536 14.0124 3.53397 15.3249 4.01184C16.9841 4.61978 18.4044 5.74399 19.3771 7.2192C19.519 7.42832 19.6472 7.64637 19.7611 7.872C20.6143 9.25327 21.0362 10.8577 20.9726 12.48C20.9046 13.7014 20.5781 14.8944 20.0145 15.9802L20.0135 15.9782Z" fill="currentColor"></path><path d="M15.3642 8.16383C15.1831 7.36803 14.714 6.66737 14.0471 6.19679C13.6278 5.8994 13.1359 5.72064 12.6235 5.67935C12.4508 5.67011 12.2777 5.67011 12.1051 5.67935C11.5367 5.65992 10.9773 5.82494 10.5105 6.14975C10.2224 6.31645 9.96142 6.52623 9.73673 6.77183C9.31037 7.21859 9.07691 7.81516 9.0868 8.43263C9.06025 8.80276 9.09266 9.17475 9.18281 9.53471C9.34733 10.2575 9.76274 10.8986 10.3552 11.3442C10.9477 11.7897 11.6789 12.0109 12.419 11.9683C12.872 11.9363 13.3131 11.809 13.7136 11.5947C14.114 11.3804 14.4647 11.0841 14.7427 10.725C15.0207 10.3658 15.2198 9.95209 15.3269 9.51075C15.434 9.06941 15.4467 8.61043 15.3642 8.16383Z" fill="currentColor"></path></svg>