<svg xmlns:xlink="http://www.w3.org/1999/xlink" viewBox="0 0 25 24" fill="none" xmlns="http://www.w3.org/2000/svg" width="25"  height="24" ><path d="M10.4231 13.5619C10.2307 13.5624 10.0418 13.5114 9.87589 13.4141C9.71196 13.3183 9.57597 13.1813 9.48146 13.0167C9.38695 12.852 9.33722 12.6655 9.33722 12.4757C9.33722 12.2858 9.38695 12.0993 9.48146 11.9347C9.57597 11.77 9.71196 11.633 9.87589 11.5373C10.0422 11.4401 10.2314 11.3889 10.424 11.3889C10.6167 11.3889 10.8059 11.4401 10.9722 11.5373C11.0502 11.5888 11.1246 11.6455 11.1949 11.7072L11.362 11.9222C11.4053 12.0071 11.4432 12.0946 11.4752 12.1843L11.5146 12.4665C11.5214 12.6156 11.4882 12.7637 11.4186 12.8957C11.4041 12.937 11.3871 12.9774 11.3677 13.0166C11.3001 13.1439 11.201 13.2517 11.0797 13.3296C11.0452 13.3596 11.0086 13.3872 10.9703 13.4121C10.8034 13.5108 10.6131 13.5625 10.4192 13.5619H10.4231Z" fill="currentColor"></path><path d="M14.4522 13.5619C14.2853 13.562 14.1205 13.5236 13.9707 13.4498C13.821 13.3759 13.6903 13.2685 13.5887 13.1359C13.4872 13.0033 13.4176 12.8491 13.3853 12.6853C13.353 12.5214 13.3589 12.3524 13.4026 12.1912C13.4462 12.03 13.5264 11.881 13.6369 11.7559C13.7475 11.6307 13.8854 11.5327 14.0399 11.4694C14.1945 11.4062 14.3615 11.3794 14.5281 11.3912C14.6947 11.4029 14.8563 11.4529 15.0004 11.5373C15.0783 11.5886 15.1524 11.6454 15.2222 11.7072L15.3902 11.9213C15.4334 12.0066 15.4715 12.0945 15.5044 12.1843L15.5438 12.4656C15.5505 12.6143 15.5174 12.7621 15.4478 12.8937C15.433 12.9351 15.4157 12.9755 15.3959 13.0147C15.3286 13.1421 15.2294 13.25 15.1079 13.3277C15.074 13.3576 15.0381 13.3852 15.0004 13.4102C14.8344 13.5085 14.6452 13.5609 14.4522 13.5619Z" fill="currentColor"></path><path d="M17.0192 15.5818C16.5392 15.5578 16.0842 15.5443 15.6004 15.5443C14.9168 15.5443 14.2036 15.5347 13.5201 15.552C13.0535 15.5645 12.5869 15.576 12.1242 15.5827C11.4244 15.5914 10.6247 15.6173 9.8154 15.6374C9.66468 15.6374 9.48132 15.648 9.32484 15.6557C8.67219 15.6233 8.01895 15.7065 7.39525 15.9014C7.30705 15.9543 7.23412 16.0291 7.18362 16.1187C7.13313 16.2082 7.1068 16.3094 7.10724 16.4122C7.10817 16.5085 7.13552 16.6028 7.1863 16.6847C7.23708 16.7667 7.30935 16.8331 7.39525 16.8768C7.9821 17.0584 8.59597 17.137 9.20965 17.1091C9.36421 17.1149 9.53317 17.1091 9.68965 17.1206C10.4356 17.1648 11.1719 17.1571 11.8074 17.1571H12.2788C12.6925 17.1571 13.1082 17.1571 13.5268 17.1648C13.9453 17.1725 14.3639 17.1427 14.7825 17.1427C15.6849 17.1427 16.3761 17.1187 17.0269 17.0755C17.1261 17.0754 17.2243 17.0556 17.3158 17.0173C17.4073 16.9789 17.4902 16.9228 17.5599 16.8522C17.6295 16.7816 17.6845 16.6978 17.7215 16.6058C17.7586 16.5138 17.777 16.4153 17.7757 16.3162C17.776 16.2178 17.7565 16.1203 17.7183 16.0296C17.6801 15.9389 17.6241 15.8568 17.5535 15.7883C17.4829 15.7197 17.3992 15.6661 17.3074 15.6306C17.2156 15.5952 17.1176 15.5785 17.0192 15.5818Z" fill="currentColor"></path><path d="M8.02598 20.9414C6.39137 20.969 4.75656 20.9004 3.12999 20.736L3.04839 20.7216H3.00999C2.98407 20.7216 2.95814 20.7216 2.93222 20.7216C2.8478 20.7228 2.76398 20.7073 2.68556 20.676C2.60714 20.6447 2.53568 20.5982 2.47527 20.5392C2.41934 20.4803 2.37576 20.4108 2.34708 20.3348C2.31839 20.2588 2.30518 20.1778 2.30823 20.0966C2.35335 17.3126 4.10727 10.0598 4.43655 9.06815L4.51143 8.65631C4.55265 8.43003 4.67314 8.22582 4.85127 8.08031C5.00162 7.95521 5.1879 7.88123 5.38311 7.86911C5.45511 7.86911 5.52807 7.86335 5.60007 7.86335L6.05319 7.87103C6.20775 7.87103 6.35175 7.86527 6.50439 7.86047C6.72615 7.85375 6.93831 7.84607 7.13991 7.84607H7.46439L7.49319 7.60895C7.64845 6.34205 8.28546 5.18354 9.27207 4.37375C9.43668 4.20479 9.61383 4.04851 9.80199 3.90623C10.5378 3.37867 11.4141 3.08253 12.3191 3.05567C12.6224 3.05039 12.9237 3.10588 13.2052 3.21887L13.234 3.23135L13.2647 3.23711C14.1117 3.39121 14.9013 3.7717 15.5495 4.33823C16.1025 4.78201 16.5547 5.33832 16.8762 5.97023C17.164 6.47869 17.3924 7.01856 17.5569 7.57919L17.6154 7.78463L17.8286 7.77215C17.9092 7.77215 17.9965 7.76543 18.0916 7.76543C18.2433 7.76543 18.3921 7.77023 18.5207 7.77503L18.7021 7.78079C18.7981 7.78079 18.8845 7.78079 18.9853 7.77023C19.138 7.76255 19.3031 7.75391 19.4653 7.75391C19.6967 7.75391 20.3101 7.75391 20.4877 8.12639C21.0205 9.27839 22.2503 19.103 22.2858 19.511C22.3496 19.8328 22.2848 20.1667 22.1053 20.4413C22.0415 20.5148 21.9634 20.5745 21.8758 20.6169C21.7882 20.6593 21.6928 20.6835 21.5956 20.688C19.427 20.88 15.9604 20.8925 13.4289 20.8992H12.3662C11.9284 20.8992 11.435 20.9069 10.905 20.9136H10.7908C9.93351 20.9299 8.9831 20.9414 8.02598 20.9414ZM12.4372 19.0358C12.6292 19.0358 13.3454 19.0454 14.0692 19.056C14.819 19.0666 15.5831 19.0781 15.7972 19.0781C17.6481 19.0733 18.3028 19.033 19.7389 18.9446L20.3898 18.9053C20.3898 18.9053 20.2938 18.0192 20.2593 17.7082C20.1998 17.1322 20.1316 16.4832 20.0442 15.8438C19.9626 15.2486 19.8455 14.6506 19.7322 14.0736L19.7188 14.0045C19.6228 13.5245 19.5364 13.0733 19.4701 12.6336C19.4039 12.1939 19.3453 11.3117 19.2916 10.92L19.283 10.8566C19.2234 10.415 19.1687 10.0166 19.114 9.67487L19.0785 9.45695L15.4372 9.34655L9.20583 9.46079H6.18183L6.13094 9.66335C6.07046 9.90239 6.00615 10.1962 5.91015 10.6378C5.83911 10.969 5.74983 11.8291 5.63367 12.3485C5.56647 12.649 5.43303 13.1837 5.28615 13.7741L5.27079 13.8374C5.04711 14.7293 4.7908 15.7402 4.6948 16.224C4.53507 17.017 4.41936 17.8182 4.34823 18.624L4.31079 18.9706L4.59015 18.9878C5.50503 19.0445 6.64551 19.0723 8.07687 19.0723C9.00999 19.0723 9.95079 19.0618 10.7841 19.0512C11.3985 19.0435 11.9361 19.0368 12.4103 19.0349L12.4372 19.0358ZM12.4372 4.86527C11.9295 4.86386 11.4302 4.99488 10.9886 5.24539C10.547 5.4959 10.1784 5.85725 9.9191 6.29375C9.81158 6.51455 9.71174 6.75647 9.61286 6.99839C9.55798 7.18401 9.52228 7.37477 9.50631 7.56767L9.48327 7.85567H15.395L15.369 7.56767C15.3623 7.49279 15.3527 7.41695 15.3393 7.33727C15.2501 7.05683 15.1337 6.78578 14.9918 6.52799C14.6446 5.90168 14.1216 5.39073 13.4874 5.05823C13.1527 4.93066 12.7973 4.86559 12.4391 4.86623L12.4372 4.86527Z" fill="currentColor"></path></svg>