<svg xmlns:xlink="http://www.w3.org/1999/xlink" viewBox="0 0 14 14" fill="none" xmlns="http://www.w3.org/2000/svg" width="14"  height="14" ><path d="M10.2832 10.0991C10.8461 10.9279 11.6729 11.5418 12.6291 11.8408C12.7133 11.8585 12.8003 11.8575 12.8841 11.8379C12.9679 11.8183 13.0464 11.7806 13.1141 11.7274C13.1742 11.6737 13.2218 11.6074 13.2535 11.5333C13.2852 11.4591 13.3002 11.3789 13.2974 11.2983C13.2973 11.2587 13.2943 11.2191 13.2882 11.1799C12.9979 10.2205 12.3921 9.38714 11.5691 8.81494C11.3332 8.60244 11.1099 8.39828 10.9024 8.19495L8.73572 6.00995L9.18573 5.55911C9.93073 4.81411 10.7016 4.04328 11.4357 3.26744C11.5341 3.16328 11.6341 3.06078 11.7332 2.95828C12.4573 2.34716 12.9947 1.54462 13.2841 0.642445C13.2911 0.610981 13.2947 0.578852 13.2949 0.546612C13.2952 0.486216 13.2816 0.426557 13.2554 0.372183C13.2291 0.31781 13.1907 0.270159 13.1432 0.232862C13.0957 0.195566 13.0403 0.16961 12.9812 0.156973C12.9222 0.144336 12.861 0.145353 12.8024 0.159945C11.9037 0.452734 11.1051 0.991765 10.4974 1.71578C10.3941 1.81689 10.2905 1.91744 10.1866 2.01744C9.42241 2.74661 8.66574 3.51078 7.93657 4.24994L7.47156 4.71911L7.35406 4.59244C7.14823 4.36911 6.91407 4.16244 6.68741 3.94078C5.97074 3.24161 5.23656 2.47411 4.49073 1.69078C4.00745 1.1307 3.44082 0.648384 2.81073 0.260778C2.70411 0.199276 2.583 0.167344 2.45991 0.168278C2.32234 0.174548 2.18871 0.216188 2.07193 0.289176C1.95515 0.362164 1.85915 0.464033 1.79323 0.584945C1.73053 0.693098 1.69828 0.816206 1.6999 0.941209C1.70151 1.06621 1.73694 1.18845 1.80241 1.29494C2.20158 1.95661 5.89658 5.63245 6.11658 5.84078L6.23989 5.95744L4.32324 7.88411C4.11574 8.09161 3.90156 8.29661 3.68656 8.50161C2.95775 9.13399 2.32103 9.86525 1.79491 10.6741C1.73205 10.7801 1.69868 10.9009 1.69824 11.0241C1.70248 11.1623 1.74248 11.2971 1.81434 11.4153C1.88619 11.5334 1.98746 11.6309 2.10825 11.6983C2.21557 11.7624 2.33824 11.7962 2.46324 11.7962C2.58824 11.7962 2.71091 11.7624 2.81824 11.6983C3.6256 11.1682 4.35489 10.5278 4.98491 9.79578C5.18824 9.58078 5.39156 9.36661 5.5974 9.15994L7.51408 7.23328L9.67322 9.42578C9.88072 9.63745 10.0774 9.86161 10.2832 10.0991Z" fill="#484848"></path></svg>