<svg xmlns:xlink="http://www.w3.org/1999/xlink" xmlns="http://www.w3.org/2000/svg" viewBox="0 0 22 21" fill="none" width="22"  height="21" ><g clip-path="url(#clip0_1467_6385)"><path d="M21.5 10.5644C21.4998 8.54556 20.9247 6.56904 19.8427 4.86882C18.7607 3.1686 17.2171 1.81599 15.3947 0.970999C13.5724 0.126003 11.5475 -0.176108 9.55988 0.100792C7.57226 0.377692 5.70513 1.22191 4.17952 2.53332C2.65391 3.84473 1.53371 5.56856 0.951575 7.50062C0.36944 9.43268 0.349737 11.4919 0.894788 13.4349C1.43984 15.3779 2.52681 17.1232 4.02704 18.4639C5.52727 19.8047 7.37791 20.6847 9.35986 21.0001V13.6185H6.6934V10.5654H9.35986V8.23805C9.35986 5.58973 10.9277 4.12797 13.3253 4.12797C14.113 4.13884 14.8988 4.20741 15.6766 4.33317V6.93286H14.3517C14.1261 6.90272 13.8967 6.92413 13.6804 6.99526C13.4641 7.06639 13.2664 7.18557 13.1021 7.34393C12.9377 7.5023 12.8109 7.69575 12.7309 7.9101C12.651 8.12445 12.6199 8.35413 12.6401 8.58217V10.5644H15.5523L15.0888 13.6176H12.642V20.9992C15.1114 20.6056 17.3602 19.3385 18.984 17.4257C20.6077 15.5129 21.4999 13.08 21.5 10.5644Z" fill="#787878"></path></g><defs><clipPath id="clip0_1467_6385"><rect width="21" height="21" fill="white" transform="translate(0.5)"></rect></clipPath></defs></svg>