<svg xmlns:xlink="http://www.w3.org/1999/xlink" xmlns="http://www.w3.org/2000/svg" viewBox="0 0 22 21" fill="none" width="22"  height="21" ><g clip-path="url(#clip0_1467_6381)"><path d="M11.0005 1.89223C13.8043 1.89223 14.1365 1.90212 15.2438 1.95353C15.9096 1.96086 16.5692 2.08324 17.1934 2.31535C17.6461 2.48991 18.0573 2.75738 18.4005 3.10029C18.7438 3.4432 19.0115 3.85413 19.1865 4.30666C19.4172 4.93155 19.5396 5.59112 19.5484 6.25717C19.5988 7.36447 19.6097 7.69665 19.6097 10.5005C19.6097 13.3043 19.5988 13.6365 19.5484 14.7438C19.5399 15.4095 19.4175 16.0691 19.1865 16.6936C19.0118 17.1465 18.7442 17.5579 18.401 17.9011C18.0577 18.2444 17.6463 18.5119 17.1934 18.6866C16.5691 18.918 15.9096 19.0404 15.2438 19.0484C14.1374 19.0988 13.8043 19.1097 11.0005 19.1097C8.19663 19.1097 7.86544 19.0988 6.75716 19.0484C6.09135 19.0404 5.43185 18.918 4.80752 18.6866C4.3546 18.5118 3.94327 18.2442 3.6 17.9009C3.25673 17.5576 2.98913 17.1465 2.8144 16.6936C2.58334 16.0691 2.46129 15.4095 2.45355 14.7438C2.40214 13.6365 2.39224 13.3043 2.39224 10.5005C2.39224 7.69665 2.40214 7.36447 2.45355 6.25717C2.46158 5.59113 2.58362 4.93149 2.8144 4.30666C2.98941 3.85413 3.25714 3.4432 3.60039 3.10029C3.94364 2.75738 4.35482 2.48991 4.80752 2.31535C5.43167 2.08324 6.09128 1.96086 6.75716 1.95353C7.86544 1.90311 8.19663 1.89223 11.0005 1.89223ZM11.0005 0.00012207C8.14918 0.00012207 7.79129 0.0119512 6.67114 0.0633612C5.80016 0.080168 4.93834 0.244586 4.12239 0.549723C3.42464 0.8195 2.79097 1.23219 2.26199 1.76116C1.73302 2.29014 1.32042 2.92366 1.05065 3.62141C0.745262 4.43698 0.580443 5.29861 0.563227 6.16931C0.511817 7.29045 0.498962 7.64726 0.498962 10.4985C0.498962 13.3498 0.511817 13.7086 0.563227 14.8278C0.58062 15.6991 0.745429 16.5613 1.05065 17.3776C1.32071 18.0749 1.73343 18.7083 2.26239 19.2369C2.79134 19.7655 3.42487 20.1777 4.12239 20.4474C4.93807 20.7537 5.79999 20.9188 6.67114 20.9356C7.79129 20.9861 8.14819 20.9982 11.0005 20.9982C13.8527 20.9982 14.2096 20.9861 15.3298 20.9356C16.2009 20.9188 17.0628 20.7537 17.8785 20.4474C18.576 20.1777 19.2096 19.7655 19.7385 19.2369C20.2675 18.7083 20.6802 18.0749 20.9503 17.3776C21.256 16.5614 21.4211 15.6992 21.4387 14.8278C21.4891 13.7076 21.501 13.3449 21.501 10.4985C21.501 7.6522 21.4891 7.28946 21.4387 6.16931C21.4212 5.29854 21.2561 4.4369 20.9503 3.62141C20.6805 2.92366 20.2679 2.29014 19.7389 1.76116C19.2099 1.23219 18.5763 0.8195 17.8785 0.549723C17.0626 0.244567 16.2008 0.0801489 15.3298 0.0633612C14.2096 0.0119512 13.8527 0.00012207 11.0005 0.00012207Z" fill="#787878"></path><path d="M11.0044 5.10828C9.93792 5.10828 8.89537 5.4245 8.00862 6.01704C7.12187 6.60957 6.43074 7.45192 6.02265 8.43726C5.61456 9.4226 5.50785 10.5069 5.71599 11.5529C5.92413 12.5989 6.43777 13.5596 7.19197 14.3137C7.94617 15.0677 8.90704 15.5812 9.95307 15.7892C10.9991 15.9971 12.0833 15.8902 13.0686 15.4819C14.0539 15.0736 14.8959 14.3823 15.4883 13.4954C16.0806 12.6086 16.3967 11.566 16.3966 10.4995C16.3966 9.79147 16.2571 9.0902 15.9861 8.43605C15.7151 7.78191 15.3179 7.18771 14.8172 6.68708C14.3165 6.18646 13.722 5.78924 13.0678 5.51837C12.4136 5.24749 11.7125 5.10815 11.0044 5.10828ZM11.0044 14.0004C10.3123 14.0004 9.63564 13.795 9.06012 13.4105C8.4846 13.0259 8.036 12.4796 7.77108 11.8401C7.50616 11.2006 7.43681 10.497 7.57177 9.81814C7.70673 9.13927 8.03995 8.51546 8.52932 8.02596C9.01868 7.53646 9.6422 7.20312 10.321 7.06796C10.9999 6.93281 11.7035 7.00211 12.3431 7.26685C12.9826 7.5316 13.5292 7.97988 13.9139 8.55529C14.2986 9.13071 14.5041 9.80737 14.5043 10.4995C14.5044 10.9592 14.4139 11.4144 14.2381 11.8391C14.0623 12.2639 13.8045 12.6497 13.4795 12.9748C13.1545 13.2999 12.7687 13.558 12.344 13.7339C11.9193 13.9098 11.4641 14.0004 11.0044 14.0004Z" fill="#787878"></path><path d="M17.8657 4.89474C17.8661 5.14413 17.7925 5.38812 17.6543 5.59568C17.516 5.80323 17.3192 5.96509 17.0889 6.0608C16.8586 6.15651 16.6051 6.18162 16.3605 6.13321C16.1158 6.0848 15.8911 5.96498 15.7146 5.78877C15.5381 5.61256 15.4178 5.38792 15.369 5.14335C15.3202 4.89878 15.3451 4.64534 15.4404 4.41489C15.5358 4.18444 15.6974 3.98747 15.9047 3.84888C16.112 3.71028 16.3558 3.63623 16.6052 3.63623C16.9392 3.63623 17.2595 3.76883 17.4958 4.0048C17.7322 4.24077 17.8652 4.56077 17.8657 4.89474Z" fill="#787878"></path></g><defs><clipPath id="clip0_1467_6381"><rect width="21" height="21" fill="white" transform="translate(0.5)"></rect></clipPath></defs></svg>