<svg xmlns:xlink="http://www.w3.org/1999/xlink" viewBox="0 0 25 24" fill="none" xmlns="http://www.w3.org/2000/svg" width="25"  height="24" ><g clip-path="url(#clip0_985_4310)"><path d="M10.3047 4C6.99098 4 4.30469 6.68629 4.30469 10C4.30469 13.3137 6.99098 16 10.3047 16C13.6184 16 16.3047 13.3137 16.3047 10C16.3047 6.68629 13.6184 4 10.3047 4ZM2.30469 10C2.30469 5.58172 5.88641 2 10.3047 2C14.723 2 18.3047 5.58172 18.3047 10C18.3047 11.8487 17.6776 13.551 16.6245 14.9056L22.0118 20.2929C22.4023 20.6834 22.4023 21.3166 22.0118 21.7071C21.6213 22.0976 20.9881 22.0976 20.5976 21.7071L15.2103 16.3199C13.8556 17.3729 12.1534 18 10.3047 18C5.88641 18 2.30469 14.4183 2.30469 10Z" fill="currentColor"></path></g><defs><clipPath id="clip0_985_4310"><rect width="24" height="24" fill="white" transform="translate(0.304688)"></rect></clipPath></defs></svg>