<svg version="1.1" id="Layer_1" xmlns="http://www.w3.org/2000/svg" xmlns:xlink="http://www.w3.org/1999/xlink" x="0px" y="0px" viewBox="0 0 60 60" style="enable-background:new 0 0 60 60;" xml:space="preserve" width="60"  height="60" ><style type="text/css">
					.st0{clip-path:url(#SVGID_00000143594369523283623400000010728736059271641996_);}
					.st1{fill:#484848;}
				</style><g><g><defs><rect id="SVGID_1_" width="60" height="60"></rect><rect id="SVGID_1_" width="60" height="60"></rect></defs><clipPath id="SVGID_00000085232027753384135660000005809655836899987082_"><use xlink:href="#SVGID_1_" style="overflow:visible;"></use></clipPath><g style="clip-path:url(#SVGID_00000085232027753384135660000005809655836899987082_);"><path class="st1" d="M54,13.2c-3.2-2.4-7.9-1.4-11.7-1.4l-12.5,0c-7.4,0-17.2-1.6-24,1.6c-0.2,0.1-0.4,0.3-0.6,0.6
				C5.1,14.2,5,14.4,5,14.7c0,0.3,0.1,0.5,0.2,0.8c0.1,0.2,0.3,0.4,0.6,0.6c6.7,3.3,16.6,1.8,24,1.9l12.5,0.1
				c3.8,0,8.5,1.1,11.8-1.3c0.3-0.2,0.6-0.5,0.7-0.8c0.2-0.3,0.3-0.7,0.3-1c0-0.4-0.1-0.7-0.3-1C54.6,13.6,54.3,13.4,54,13.2z"></path><path class="st1" d="M52.6,27.4c-3.8-0.7-7.6-0.8-11.5-0.5l-12.5,0c-4.2,0-8.4,0-12.5,0.1c-3.4-0.3-6.8,0.3-9.8,1.7
				c-0.2,0.2-0.5,0.4-0.6,0.6c-0.1,0.3-0.2,0.5-0.2,0.8c0,0.3,0.1,0.6,0.2,0.8c0.1,0.3,0.3,0.5,0.6,0.6c3.1,1.4,6.4,2,9.8,1.7
				c4.2,0.1,8.4,0,12.5,0l12.5,0c3.8,0.3,7.7,0.1,11.5-0.6c0.6-0.2,1.1-0.5,1.4-1c0.4-0.5,0.5-1.1,0.5-1.7c0-0.6-0.2-1.2-0.5-1.7
				C53.7,28,53.2,27.6,52.6,27.4z"></path><path class="st1" d="M52.5,43.3c-3.6-1-7.4-1.3-11.1-1l-11.4,0c-7.3,0-15.4-0.9-22.5,0.9C7,43.4,6.6,43.6,6.3,44
				c-0.3,0.4-0.4,0.8-0.4,1.3c0,0.5,0.2,0.9,0.4,1.3C6.6,47,7,47.3,7.5,47.4c7.1,1.8,15.2,1,22.5,1.1l11.4,0.1
				c3.7,0.4,7.5,0.1,11.1-0.8c0.5-0.1,0.9-0.4,1.2-0.8c0.3-0.4,0.4-0.9,0.4-1.4c0-0.5-0.2-1-0.5-1.4C53.3,43.8,52.9,43.5,52.5,43.3z
				"></path></g></g></g></svg>