<svg xmlns:xlink="http://www.w3.org/1999/xlink" xmlns="http://www.w3.org/2000/svg" viewBox="0 0 22 21" fill="none" width="22"  height="21" ><g clip-path="url(#clip0_1467_6387)"><path d="M11.0009 4.09482e-08C8.92414 -0.000183331 6.89395 0.615511 5.16709 1.76919C3.44023 2.92288 2.09427 4.5628 1.29944 6.48146C0.504602 8.40013 0.296602 10.5114 0.701717 12.5482C1.10683 14.5851 2.10688 16.4561 3.57539 17.9246C5.04389 19.3931 6.9149 20.3931 8.95178 20.7982C10.9887 21.2033 13.1 20.9955 15.0186 20.2006C16.9373 19.4058 18.5772 18.0598 19.7308 16.3329C20.8845 14.6061 21.5002 12.5758 21.5 10.499C21.5 7.71452 20.3939 5.044 18.4249 3.07504C16.4559 1.10608 13.7855 4.09482e-08 11.0009 4.09482e-08ZM15.8305 15.1728C15.7879 15.2476 15.7303 15.3128 15.6613 15.3643C15.5923 15.4158 15.5134 15.4525 15.4296 15.4721C15.3458 15.4917 15.2588 15.4938 15.1741 15.4782C15.0895 15.4626 15.0089 15.4297 14.9376 15.3815C12.4705 13.8601 9.3747 13.544 5.69854 14.3849C5.61552 14.4067 5.52901 14.4117 5.44401 14.3998C5.35901 14.3879 5.27722 14.3591 5.20336 14.3154C5.12951 14.2717 5.06507 14.2138 5.01376 14.145C4.96245 14.0762 4.92531 13.9978 4.90446 13.9145C4.88362 13.8313 4.87949 13.7447 4.89232 13.6599C4.90516 13.575 4.93468 13.4935 4.97921 13.4202C5.02375 13.3468 5.08242 13.2831 5.15178 13.2325C5.22114 13.182 5.29983 13.1456 5.38332 13.1257C9.37007 12.2328 12.8376 12.6001 15.5681 14.2801C15.6467 14.3186 15.7165 14.373 15.773 14.4399C15.8294 14.5068 15.8713 14.5848 15.896 14.6687C15.9207 14.7527 15.9276 14.8409 15.9163 14.9277C15.905 15.0145 15.8758 15.0979 15.8305 15.1728ZM17.0905 12.2839C17.0364 12.3746 16.9646 12.4535 16.8795 12.5161C16.7944 12.5787 16.6976 12.6238 16.5948 12.6483C16.4921 12.6728 16.3854 12.6765 16.2812 12.6592C16.177 12.6418 16.0773 12.6036 15.9881 12.5471C14.4137 11.6634 12.6792 11.1019 10.8856 10.8949C9.09202 10.688 7.27523 10.84 5.54094 11.342C5.44011 11.3763 5.3334 11.3899 5.22716 11.3823C5.12092 11.3747 5.0173 11.3459 4.92237 11.2976C4.82745 11.2493 4.74315 11.1826 4.67448 11.1012C4.60582 11.0197 4.55416 10.9254 4.52257 10.8236C4.49098 10.7219 4.48009 10.6148 4.49054 10.5088C4.50099 10.4028 4.53258 10.3 4.58343 10.2064C4.63428 10.1128 4.70334 10.0304 4.78659 9.96394C4.86983 9.89749 4.96556 9.84838 5.06809 9.81953C7.03244 9.25844 9.08897 9.09488 11.1173 9.3383C13.1457 9.58171 15.1051 10.2273 16.8809 11.2372C16.9648 11.291 17.037 11.3609 17.0932 11.4432C17.1494 11.5255 17.1884 11.6182 17.208 11.7159C17.2275 11.8136 17.2272 11.9142 17.207 12.0118C17.1868 12.1094 17.1472 12.202 17.0905 12.2839ZM17.1952 9.34486C13.8352 7.34963 8.21855 7.13912 5.01617 8.13952C4.89475 8.18029 4.76642 8.19647 4.63869 8.18705C4.51096 8.17764 4.38638 8.14287 4.27225 8.08474C4.15812 8.02661 4.05674 7.94621 3.97403 7.84843C3.89131 7.75064 3.82892 7.63742 3.79051 7.51523C3.7521 7.39304 3.73846 7.26429 3.75036 7.13676C3.76225 7.00924 3.79946 6.88553 3.8598 6.77256C3.92014 6.65958 4.0024 6.55978 4.10178 6.47897C4.20115 6.39817 4.31563 6.33799 4.43854 6.30196C8.16569 5.19958 14.3081 5.40987 18.1938 7.7194C18.42 7.85482 18.5851 8.07271 18.6542 8.32717C18.7233 8.58162 18.6913 8.85302 18.5647 9.08433C18.4018 9.27946 18.1763 9.41212 17.9266 9.45962C17.6769 9.50713 17.4184 9.46655 17.1952 9.34486Z" fill="#787878"></path></g><defs><clipPath id="clip0_1467_6387"><rect width="21" height="21" fill="white" transform="translate(0.5)"></rect></clipPath></defs></svg>