<svg xmlns:xlink="http://www.w3.org/1999/xlink" width="22" height="21" viewBox="0 0 22 21" fill="none" xmlns="http://www.w3.org/2000/svg"><path d="M15.025 5.0925C14.4269 4.40967 14.0973 3.53275 14.0975 2.625H11.3938V13.475C11.3729 14.0621 11.125 14.6183 10.7023 15.0263C10.2796 15.4343 9.71503 15.6624 9.12751 15.6625C7.88501 15.6625 6.85252 14.6475 6.85252 13.3875C6.85252 11.8825 8.30502 10.7537 9.80127 11.2175V8.4525C6.78252 8.05 4.14001 10.395 4.14001 13.3875C4.14001 16.3013 6.55502 18.375 9.11877 18.375C11.8663 18.375 14.0975 16.1438 14.0975 13.3875V7.88375C15.1939 8.67112 16.5102 9.09357 17.86 9.09125V6.3875C17.86 6.3875 16.215 6.46625 15.025 5.0925Z" fill="#787878"></path></svg>