<svg xmlns:xlink="http://www.w3.org/1999/xlink" xmlns="http://www.w3.org/2000/svg" viewBox="0 0 22 21" fill="none" width="22"  height="21" ><g clip-path="url(#clip0_1467_6377)"><path d="M15.6634 12.145C15.6634 12.145 14.1289 11.4046 13.8025 11.2569C13.7249 11.2128 13.634 11.1975 13.5461 11.2137C13.4582 11.2299 13.379 11.2766 13.3226 11.3454C13.3226 11.3454 12.8595 11.9364 12.7032 12.1229C12.547 12.3093 12.4716 12.4847 12.0824 12.3604C11.4136 12.096 10.7966 11.7177 10.2592 11.243C9.76598 10.7835 9.33678 10.261 8.98283 9.68937C8.9385 9.6377 8.91416 9.57223 8.91416 9.50444C8.91416 9.43664 8.9385 9.37101 8.98283 9.31933L9.58823 8.57908C9.6471 8.48162 9.67819 8.37015 9.67819 8.25658C9.67819 8.14302 9.6471 8.03155 9.58823 7.93408C9.55057 7.8236 8.92281 6.37364 8.84051 6.16649C8.81719 6.10731 8.77958 6.05466 8.73093 6.01325C8.68229 5.97183 8.62413 5.94292 8.56154 5.92896H7.81382C7.67576 5.95629 7.54416 6.00912 7.42599 6.08489C7.15343 6.31576 6.93182 6.59972 6.77486 6.91904C6.61791 7.23837 6.52899 7.5862 6.51369 7.941C6.47918 8.50625 6.60376 9.07001 6.87359 9.56934C7.54408 10.7675 8.42183 11.8397 9.46686 12.7374C10.5306 13.5865 11.775 14.1857 13.1064 14.4899C13.5217 14.5448 13.9442 14.5068 14.3428 14.3787C14.7413 14.2506 15.1059 14.0356 15.4095 13.7497C15.5855 13.5596 15.7148 13.3318 15.7873 13.0841C15.8599 12.8365 15.8738 12.5755 15.828 12.3216C15.818 12.2807 15.7976 12.2432 15.7688 12.2122C15.74 12.1813 15.7037 12.1581 15.6634 12.145Z" fill="#787878"></path><path d="M11.1729 1.17847e-05C8.43626 0.0036656 5.81279 1.08149 3.87768 2.99725C1.94257 4.91302 0.853778 7.5104 0.850087 10.2197C0.847384 12.0886 1.36738 13.9217 2.35247 15.5159L0.501343 20.9972L6.21238 19.1826C7.59241 19.93 9.12677 20.3554 10.6982 20.4261C12.2696 20.4968 13.8366 20.211 15.2794 19.5906C16.7223 18.9701 18.0028 18.0314 19.0232 16.8462C20.0436 15.661 20.7769 14.2605 21.1671 12.7518C21.5572 11.2432 21.594 9.66627 21.2745 8.1414C20.955 6.61653 20.2878 5.18402 19.3237 3.95346C18.3596 2.7229 17.1241 1.72684 15.7117 1.04118C14.2994 0.35552 12.7474 -0.00155054 11.1743 -0.00268555L11.1729 1.17847e-05ZM11.1729 18.7296C9.48523 18.7318 7.83475 18.2387 6.43 17.3127L3.22157 18.3306L4.25665 15.2645C3.11345 13.7243 2.52806 11.8477 2.595 9.93749C2.66195 8.0273 3.3773 6.19512 4.62557 4.73703C5.87384 3.27895 7.58213 2.27995 9.47453 1.90146C11.3669 1.52297 13.333 1.78716 15.0551 2.65115C16.7772 3.51514 18.1549 4.92862 18.9656 6.66326C19.7763 8.39791 19.9728 10.3524 19.5232 12.2112C19.0736 14.07 18.0043 15.7244 16.4879 16.9074C14.9715 18.0904 13.0966 18.7329 11.166 18.731L11.1729 18.7296Z" fill="#787878"></path></g><defs><clipPath id="clip0_1467_6377"><rect width="21" height="21" fill="white" transform="translate(0.5)"></rect></clipPath></defs></svg>