<svg xmlns:xlink="http://www.w3.org/1999/xlink" viewBox="0 0 21 21" fill="none" xmlns="http://www.w3.org/2000/svg" width="21"  height="21" ><g clip-path="url(#clip0_840_30476)"><path d="M18.8232 9.83881C18.8148 9.71332 18.7999 9.58837 18.7787 9.4644C18.5199 7.33688 17.4439 5.39331 15.7785 4.04441C14.5491 3.01712 13.0446 2.37515 11.4523 2.19884L11.1186 2.16663H9.83554L9.44438 2.2122C8.30521 2.35636 7.20844 2.73595 6.22389 3.32684C5.23934 3.91772 4.38858 4.70695 3.72552 5.64441C2.80762 6.90277 2.27227 8.39931 2.18418 9.95437C2.06936 11.6825 2.49744 13.4033 3.40868 14.8762C4.31991 16.349 5.66898 17.5002 7.26664 18.1688C8.38152 18.6415 9.58551 18.8664 10.7958 18.8281C12.0062 18.7897 13.194 18.489 14.2767 17.9467C15.3485 17.4011 16.29 16.6311 17.0377 15.6892C17.7854 14.7472 18.3218 13.6554 18.61 12.4877C18.6824 12.1663 18.7366 11.8409 18.7722 11.5133C18.781 11.3614 18.8023 11.2106 18.8357 11.0622V10.0422L18.8232 9.83881ZM6.57762 14.3878C5.97399 14.5504 5.39526 14.7937 4.8567 15.1111C3.89765 13.9489 3.32499 12.5163 3.21879 11.0133H6.0888C6.11796 12.1526 6.2813 13.2845 6.57545 14.3855L6.57762 14.3878ZM5.56959 5.10886C6.24977 4.48069 7.04559 3.99019 7.91226 3.66443C7.48307 4.26067 7.13535 4.91163 6.87873 5.59999C6.42463 5.48492 5.9844 5.32021 5.56634 5.10886H5.56959ZM7.91226 5.8444C8.15544 5.17968 8.51153 4.56205 8.96532 4.01884C9.23277 3.68988 9.57985 3.43448 9.97335 3.27665V6.03883C9.28142 6.02362 8.59105 5.95865 7.90846 5.8444H7.91226ZM8.77977 7.00549C9.10088 7.00549 9.42114 7.05663 9.74114 7.07663H9.97335V9.95437H7.12341C7.15745 8.90264 7.31433 7.85852 7.59108 6.84328H7.83522C8.15003 6.91885 8.47004 6.9727 8.79225 7.00441L8.77977 7.00549ZM6.5722 6.60551C6.28282 7.70174 6.12092 8.82773 6.08988 9.96109H3.21987C3.33063 8.47332 3.89331 7.05487 4.83229 5.89554L4.99885 5.97332C5.22107 6.08443 5.46094 6.20553 5.69872 6.30664C5.93649 6.40775 6.18561 6.48663 6.43005 6.56441L6.5722 6.60551ZM6.89338 15.3744C7.14681 16.08 7.501 16.745 7.94535 17.3489C7.07866 17.001 6.27776 16.508 5.57664 15.8911C5.99261 15.6687 6.43258 15.4953 6.88849 15.3744H6.89338ZM8.68971 16.5877C8.37065 16.1382 8.10967 15.6503 7.91226 15.1355C8.59404 15.0216 9.28253 14.9526 9.97335 14.9289V17.7067C9.84507 17.6594 9.72208 17.5987 9.60659 17.5255C9.23838 17.2795 8.92471 16.9603 8.68537 16.5877H8.68971ZM7.1245 11.0188H9.98745V13.8966C9.18615 13.9172 8.38781 14.0012 7.59976 14.1478C7.31617 13.1279 7.15489 12.0779 7.11961 11.02L7.1245 11.0188ZM14.4574 6.59886C15.0629 6.43962 15.644 6.19849 16.1843 5.88218C17.1335 7.04121 17.7005 8.46567 17.8075 9.95993H14.9343C14.9016 8.82512 14.739 7.69779 14.4498 6.59995L14.4574 6.59886ZM15.4399 15.8833C14.7621 16.507 13.9695 16.9934 13.1065 17.3155C13.5373 16.7211 13.8829 16.0697 14.134 15.3799C14.5847 15.4971 15.0208 15.6665 15.4323 15.8844L15.4399 15.8833ZM13.1065 15.1344C12.857 15.8474 12.471 16.5048 11.9699 17.07C11.7176 17.3583 11.3983 17.58 11.04 17.7155V14.9378C11.7288 14.9578 12.4156 15.0238 13.0956 15.1355L13.1065 15.1344ZM11.0465 13.8955V11.0177H13.9018C13.8712 12.0757 13.7139 13.1261 13.4331 14.1466C12.6419 14.0011 11.8409 13.9176 11.0367 13.8966L11.0465 13.8955ZM13.1065 5.84332C12.4249 5.95362 11.7367 6.01815 11.0465 6.03659V3.27441C11.2033 3.33398 11.3524 3.41191 11.4908 3.50662C11.8625 3.78315 12.1765 4.12968 12.4153 4.52665C12.6841 4.94287 12.9122 5.38417 13.0956 5.8444L13.1065 5.84332ZM14.1465 5.61104C13.8814 4.89698 13.5136 4.22544 13.0544 3.6177C13.9229 3.98726 14.7284 4.48997 15.4421 5.10771C15.0261 5.32153 14.5876 5.4892 14.1351 5.60772L14.1465 5.61104ZM13.9018 9.96665H11.0465V7.07772C11.8467 7.05515 12.644 6.97306 13.432 6.83215C13.7114 7.85494 13.8659 8.90781 13.8921 9.96773L13.9018 9.96665ZM14.4574 14.38C14.7458 13.2794 14.9073 12.1495 14.9386 11.0122H17.8075C17.6991 12.5113 17.13 13.9403 16.1778 15.1033L16.0177 15.02C15.7955 14.9088 15.5545 14.7877 15.3179 14.6866C15.0812 14.5855 14.8357 14.5122 14.599 14.4289L14.4574 14.38Z" fill="#2DB9CD"></path></g><defs><clipPath id="clip0_840_30476"><rect width="16.6667" height="16.6667" fill="white" transform="translate(2.16663 2.16663)"></rect></clipPath></defs></svg>